PathFileType	4	(X/Y/Z)	P:\Projects\LMB_grand_challenge_database\project_only\opensim\experimental_data\SixthCompetition/DM_ngait_og6_new.trc
DataRate	CameraRate	NumFrames	NumMarkers	Units	OrigDataRate	OrigDataStartFrame	OrigNumFrames
120	120	6	68	mm	120	85	342
Frame#	Time	Sternum			Neck			R_Shoulder			L_Shoulder			Xiphoid			Thoracic			R_Asis			L_Asis			R_Psis			L_Psis			Lumbar			R_Elbow			R_ElbowMedial			R_ShoulderAnterior			R_ShoulderPosterior			R_Wrist			R_Radius			R_Ulna			L_Elbow			L_ElbowMedial			L_ShoulderAnterior			L_ShoulderPosterior			L_Wrist			L_Ulna			L_Radius			L_Thigh_Superior			L_Thigh_Inferior			L_Thigh_Lateral			L_Knee_Lateral			L_Knee_Medial			L_Patella			L_Shank_Superior			L_Shank_Inferior			L_Shank_Lateral			L_Ankle_Lateral			L_Ankle_Medial			R_Thigh_Superior			R_Thigh_Inferior			R_Thigh_Lateral			R_Knee_Lateral			R_Knee_Medial			R_Patella			R_Shank_Superior			R_Shank_Inferior			R_Shank_Lateral			R_Ankle_Lateral			RankleMedial			R_Heel			R_Toe			R_Midfoot_Medial			R_Midfoot_Lateral			R_Hindfoot			R_Midfoot_Superior			R_ToeMedial			R_ToeLateral			L_Heel			L_Toe			L_Midfoot_Medial			L_Midfoot_Lateral			L_Hindfoot			L_Midfoot_Superior			L_ToeMedial			L_ToeLateral			Oglobal			Sacral			Xglobal			Yglobal			Zglobal			
		X1	Y1	Z1	X2	Y2	Z2	X3	Y3	Z3	X4	Y4	Z4	X5	Y5	Z5	X6	Y6	Z6	X7	Y7	Z7	X8	Y8	Z8	X9	Y9	Z9	X10	Y10	Z10	X11	Y11	Z11	X12	Y12	Z12	X13	Y13	Z13	X14	Y14	Z14	X15	Y15	Z15	X16	Y16	Z16	X17	Y17	Z17	X18	Y18	Z18	X19	Y19	Z19	X20	Y20	Z20	X21	Y21	Z21	X22	Y22	Z22	X23	Y23	Z23	X24	Y24	Z24	X25	Y25	Z25	X26	Y26	Z26	X27	Y27	Z27	X28	Y28	Z28	X29	Y29	Z29	X30	Y30	Z30	X31	Y31	Z31	X32	Y32	Z32	X33	Y33	Z33	X34	Y34	Z34	X35	Y35	Z35	X36	Y36	Z36	X37	Y37	Z37	X38	Y38	Z38	X39	Y39	Z39	X40	Y40	Z40	X41	Y41	Z41	X42	Y42	Z42	X43	Y43	Z43	X44	Y44	Z44	X45	Y45	Z45	X46	Y46	Z46	X47	Y47	Z47	X48	Y48	Z48	X49	Y49	Z49	X50	Y50	Z50	X51	Y51	Z51	X52	Y52	Z52	X53	Y53	Z53	X54	Y54	Z54	X55	Y55	Z55	X56	Y56	Z56	X57	Y57	Z57	X58	Y58	Z58	X59	Y59	Z59	X60	Y60	Z60	X61	Y61	Z61	X62	Y62	Z62	X63	Y63	Z63	X64	Y64	Z64	X65	Y65	Z65	X66	Y66	Z66	X67	Y67	Z67	X68	Y68	Z68	

86	3.116667	-484.7	1437.09	181.775	-323.745	1353.55	191.225	-404.614	1370.11	357.414	-391.107	1404.25	15.0798	-308.81	1184.99	187.904	-578.693	1254.29	164.219	-404.751	957.829	305.206	-381.416	963.004	32.0066	-597.963	1001.87	182.381	-593.476	1001.27	104.56	-592.6079999999999	1050.89	147.396	-478.669	1056.44	439.766	-0	0	0	-0	0	0	-0	0	0	-432.245	778.057	426.957	-422.254	789.5170000000001	384.637	-478.39	786.5119999999999	430.401	-320.999	1073.07	-62.1598	-0	0	0	-0	0	0	-0	0	0	-167.095	857.639	-23.7741	-210.791	842.991	-29.9108	-170.259	879.614	18.1275	-481.446	787.324	-0.70178	-513.917	568.4880000000001	37.7432	-445.526	647.894	57.2059	-0	0	0	-0	0	0	-513.881	452.733	90.8843	-615.539	438.225	27.5189	-799.204	236.889	27.6614	-681.908	305.588	94.80459999999999	-0	0	0	-0	0	0	-449.97	783.032	325.632	-355.29	585.931	286.568	-332.176	726.651	307.764	-0	0	0	-0	0	0	-252.186	526.472	221.088	-356.024	393.041	296.05	-334.643	186.256	278.148	-279.141	318.695	213.559	-0	0	0	-0	0	0	-406.536	60.9372	214.956	-108.186	56.2929	246.577	-180.018	33.7643	187.256	-203.076	30.9606	302.203	-311.85	28.0266	277.927	-245.342	120.481	235.538	-137.411	43.5363	200.362	-152.921	42.0673	290.91	-933.62	171.345	84.0579	-683.454	34.4883	70.7266	-755.884	38.4893	127.95	-776.213	35.1758	15.3365	-868.013	85.0852	27.3452	-762.0170000000001	135.094	66.54089999999999	-722.669	29.8308	114.795	-726.066	27.3346	19.4762	-0	0	0	-595.7190000000001	1001.57	143.471	-200	0	0	-0	0	200	-0	200	0	
87	3.125	-475.521	1438.33	183.981	-314.495	1355.06	192.348	-394.205	1371.27	359.058	-382.529	1406.36	17.1331	-299.265	1186.7	188.825	-569.172	1255.12	166.169	-393.866	959.796	306.557	-371.961	964.538	33.0479	-587.849	1003.17	184.71	-583.852	1002.57	106.211	-582.737	1052.19	149.48	-466.124	1057.26	440.876	-0	0	0	-0	0	0	-0	0	0	-421.12	778.658	427.543	-411.794	790.096	385.348	-467.084	787.384	431.774	-315.072	1074.83	-61.0545	-0	0	0	-0	0	0	-0	0	0	-166.055	855.561	-23.7753	-210.324	842.0839999999999	-29.5433	-168.514	877.593	18.2893	-469.966	787.635	0.686616	-499.002	568.181	37.7051	-431.758	648.752	57.4637	-0	0	0	-0	0	0	-498.242	451.163	90.0043	-600.802	438.315	27.4203	-788.729	241.189	28.0949	-669.15	307.349	94.31359999999999	-0	0	0	-0	0	0	-440.471	783.105	326.905	-348.358	585.518	286.614	-323.434	725.638	309.607	-0	0	0	-0	0	0	-244.937	525.442	220.697	-351.337	392.862	295.693	-332.909	186.114	277.809	-275.204	317.546	213.492	-0	0	0	-0	0	0	-406.457	61.0471	214.889	-107.918	55.8733	246.485	-180.025	33.2143	187.138	-203.037	30.707	302.102	-311.885	28.0315	277.846	-245.029	120.227	235.282	-137.389	42.8091	200.435	-152.768	41.8065	290.739	-924.035	181.959	84.1347	-680.9640000000001	34.0248	70.6542	-753.697	39.4318	127.011	-773.699	38.5617	14.2931	-863.333	93.3918	26.7733	-754.179	136.881	66.74809999999999	-721.186	29.4932	114.658	-724.403	26.9658	19.7387	-0	0	0	-585.85	1002.87	145.461	-200	0	0	-0	0	200	-0	200	0	
88	3.133333	-466.638	1439.55	186.19	-305.341	1356.73	193.575	-383.901	1372.37	360.689	-374.284	1408.4	19.0234	-289.771	1188.59	189.534	-559.824	1256.15	168.147	-383.094	961.851	307.457	-362.68	965.664	34.2335	-577.861	1004.4	186.58	-574.313	1003.74	108.112	-572.961	1053.38	151.27	-453.581	1057.96	441.997	-0	0	0	-0	0	0	-0	0	0	-409.996	779.351	428.585	-401.471	790.72	385.924	-455.921	788.485	433.401	-308.976	1076.84	-60.3289	-0	0	0	-0	0	0	-0	0	0	-165.157	853.61	-23.6512	-209.497	841.453	-29.8377	-166.994	875.636	18.6115	-458.126	787.833	2.24048	-483.732	567.7809999999999	37.8977	-417.597	649.25	57.4549	-0	0	0	-0	0	0	-479.963	452.036	86.42529999999999	-585.58	438.51	27.4153	-777.936	245.982	28.4731	-655.926	309.215	93.9943	-0	0	0	-0	0	0	-431.258	783.09	327.966	-341.537	585.248	286.424	-315.164	724.501	311.217	-0	0	0	-0	0	0	-238.391	524.651	220.368	-347.078	392.866	295.222	-331.422	185.971	277.412	-271.532	316.423	213.473	-0	0	0	-0	0	0	-406.379	61.1145	214.856	-107.622	55.3487	246.373	-180.028	32.6858	187.051	-202.99	30.455	302.03	-311.813	27.9885	277.853	-244.725	119.974	235.068	-137.013	42.1767	200.377	-152.54	41.4556	290.661	-912.756	192.868	84.4062	-679.457	32.3366	70.601	-750.573	40.7211	125.826	-770.333	42.3049	13.0738	-857.843	102.251	26.267	-746.056	138.923	66.80159999999999	-720.179	29.3683	114.21	-722.703	27.7466	19.6591	-0	0	0	-576.087	1004.07	147.346	-200	0	0	-0	0	200	-0	200	0	
89	3.141667	-457.905	1440.68	188.422	-296.287	1358.31	194.531	-373.898	1373.68	362.251	-366.567	1410.58	20.7993	-280.242	1190.36	190.195	-550.538	1256.96	170.164	-372.771	963.553	308.746	-353.402	966.599	35.432	-568.049	1005.53	188.501	-564.75	1004.96	109.968	-563.268	1054.57	153.024	-441.678	1059.07	443.25	-0	0	0	-0	0	0	-0	0	0	-398.341	780.2089999999999	429.321	-390.56	791.782	386.366	-444.651	789.647	435.039	-303.106	1079	-59.7257	-0	0	0	-0	0	0	-0	0	0	-164.315	852.244	-23.8515	-208.713	841.069	-30.6027	-165.937	873.971	18.5985	-445.904	787.542	4.08968	-468.366	567.53	37.7856	-403.182	649.8	57.3324	-0	0	0	-0	0	0	-462.131	452.123	84.73569999999999	-570.23	438.973	27.4178	-766.439	251.047	28.7104	-642.559	311.148	93.93389999999999	-0	0	0	-0	0	0	-422.176	783.379	329.167	-335.173	585.251	286.48	-307.026	723.77	312.295	-0	0	0	-0	0	0	-232.553	523.179	219.674	-343.011	393.168	294.985	-329.834	186.049	277.127	-267.994	315.732	213.514	-0	0	0	-0	0	0	-406.403	60.9143	215.074	-107.35	54.6909	246.365	-180.131	32.075	187.051	-202.945	30.1973	302.066	-311.826	28.0018	277.894	-244.422	119.669	234.936	-136.853	41.7195	200.372	-152.415	41.1456	290.631	-901.3579999999999	204.108	84.62220000000001	-677.663	31.3714	70.77079999999999	-748.407	42.5714	125.601	-767.414	46.1926	12.7661	-851.141	111.124	26.1794	-738.0650000000001	140.874	67.4348	-718.995	29.8208	114.404	-721.122	29.33	19.3592	-0	0	0	-566.4	1005.25	149.234	-200	0	0	-0	0	200	-0	200	0	
90	3.15	-449.285	1441.76	190.703	-287.321	1359.84	195.473	-363.634	1374.87	363.624	-358.979	1412.47	22.3379	-271.15	1192.07	190.746	-541.456	1257.85	172.057	-362.494	965.576	310.097	-344.577	967.84	36.4728	-558.475	1006.81	190.729	-555.582	1006.23	111.959	-553.948	1055.86	155.026	-429.49	1060.13	444.644	-0	0	0	-0	0	0	-0	0	0	-386.708	781.189	430.104	-379.692	792.833	387.107	-433.177	790.686	436.681	-297.613	1080.72	-59.3933	-0	0	0	-0	0	0	-0	0	0	-163.407	850.663	-24.0612	-208.081	840.893	-31.6044	-165.493	872.072	18.6324	-433.702	787.452	5.61607	-452.883	567.27	37.9267	-388.912	650.479	57.219	-0	0	0	-0	0	0	-445.61	451.603	83.9614	-554.47	439.216	27.428	-754.66	256.067	29.0741	-629.1559999999999	313.216	93.5458	-0	0	0	-0	0	0	-413.003	784.188	330.225	-328.629	585.427	286.204	-299.404	723.367	313.049	-0	0	0	-0	0	0	-226.88	522.318	219.242	-338.861	393.23	294.926	-328.375	186.465	277.029	-264.842	315.366	213.341	-0	0	0	-0	0	0	-406.211	61.3186	214.782	-107.139	54.0545	246.363	-180.001	31.6395	187.138	-202.989	30.0329	302.122	-311.803	28.0744	277.89	-244.175	119.494	234.768	-136.709	41.2973	200.363	-152.301	40.8612	290.627	-889.603	216.023	84.95650000000001	-675.4349999999999	30.048	70.852	-746.687	45.512	125.804	-764.3150000000001	51.2714	12.8338	-843.4880000000001	120.545	26.0603	-730.235	143.65	68.7199	-717.1	30.4896	113.946	-718.651	31.0782	19.1532	-0	0	0	-557.028	1006.52	151.344	-200	0	0	-0	0	200	-0	200	0	
91	3.158333	-440.849	1442.87	193.018	-278.526	1361.49	196.208	-353.098	1376.07	365.044	-351.612	1414.54	23.8693	-262.016	1193.74	191.312	-532.605	1258.79	174.189	-352.163	967.39	311.279	-335.912	969.0700000000001	37.3853	-548.871	1008.12	192.928	-546.514	1007.49	113.964	-544.641	1057.15	157.104	-417.592	1061.01	446.086	-0	0	0	-0	0	0	-0	0	0	-374.771	782.149	430.794	-368.616	793.8869999999999	387.204	-421.152	791.822	438.038	-292.435	1082.56	-59.1368	-0	0	0	-0	0	0	-0	0	0	-162.496	849.644	-24.3936	-207.372	840.836	-33.4005	-165.242	870.381	18.6439	-421.684	787.346	6.97522	-437.309	567.1130000000001	37.7434	-374.359	651.0940000000001	56.9589	-0	0	0	-0	0	0	-428.879	450.932	83.3984	-538.044	438.45	28.213	-743.006	261.834	29.4778	-615.532	315.479	93.3215	-0	0	0	-0	0	0	-403.823	785.292	331.305	-322.66	585.53	286.819	-291.879	723.181	313.633	-0	0	0	-0	0	0	-221.231	521.529	219.121	-334.728	393.87	294.963	-326.77	186.893	276.801	-264.248	312.973	213.32	-0	0	0	-0	0	0	-406.092	61.5833	214.694	-106.971	53.7076	246.3	-179.966	31.2605	187.054	-202.954	29.765	302.04	-311.715	28.0979	277.838	-243.786	119.352	234.664	-136.525	40.9372	200.319	-152.148	40.5972	290.579	-877.0410000000001	228.125	84.7461	-672.806	28.4437	70.89700000000001	-743.857	49.8666	125.412	-759.9299999999999	57.5888	12.3275	-835.246	130.938	25.5154	-721.4930000000001	147.456	69.4455	-714.98	31.9059	113.424	-715.423	33.8573	19.1196	-0	0	0	-547.693	1007.8	153.446	-200	0	0	-0	0	200	-0	200	0	
